<svg height="479pt" viewBox="0 -7 479.968 479" width="479pt" xmlns="http://www.w3.org/2000/svg"><path d="m278.632812 313.828125-21.121093-13.839844c-10.652344-6.984375-24.433594-6.984375-35.085938 0l-21.121093 13.839844-9.65625 6.335937-177.761719 132.71875c2.839843 2.335938 6.40625 3.609376 10.082031 3.601563h432c3.675781.007813 7.238281-1.265625 10.078125-3.601563l-177.757813-132.71875zm0 0" fill="#a5d0f2"/><path d="m327.96875 88.484375v-80h-256v229.519531l129.335938 75.824219 21.121093-13.839844c10.652344-6.984375 24.433594-6.984375 35.085938 0l21.121093 13.839844 129.335938-75.824219v-149.519531zm0 0" fill="#a5d0f2"/><g fill="#4b7493"><path d="m479.863281 200.042969c-.0625-.773438-.242187-1.535157-.527343-2.253907-.09375-.363281-.21875-.714843-.367188-1.058593-.046875-.09375-.039062-.199219-.097656-.292969-.5-.820312-1.144532-1.539062-1.902344-2.128906-.066406-.054688-.097656-.144532-.167969-.199219h-.039062l-60.792969-46.160156v-59.464844c0-.144531-.074219-.265625-.082031-.410156-.039063-.796875-.199219-1.582031-.472657-2.335938-.054687-.148437-.070312-.316406-.132812-.460937-.324219-.75-.761719-1.441406-1.296875-2.058594l-56-64c-1.816406-2.371094-4.800781-3.535156-7.742187-3.019531-2.941407.519531-5.347657 2.632812-6.246094 5.480469-.894532 2.851562-.128906 5.960937 1.988281 8.066406l44.382813 50.738281h-54.398438v-72c0-4.417969-3.582031-8-8-8h-256c-4.417969 0-8 3.582031-8 8v139.464844l-60.800781 46.136719c-.078125.0625-.113281.15625-.183594.222656-.753906.582031-1.390625 1.292968-1.886719 2.101562-.058594.097656-.050781.203125-.097656.296875-.148438.34375-.273438.695313-.367188 1.058594-.289062.71875-.464843 1.480469-.527343 2.253906 0 .152344-.105469.289063-.105469.441407v240.023437c0 7.195313 3.230469 14.011719 8.800781 18.566406.304688.257813.648438.433594.96875.664063l.125.097656c4.078125 3.011719 9.007813 4.648438 14.074219 4.671875h432c13.242188-.03125 23.96875-10.757813 24-24v-240c0-.152344-.097656-.289063-.105469-.441406zm-15.894531 240.441406c0 .253906-.144531.480469-.167969.734375l-170.082031-126.964844 170.25-99.808594zm-448 0v-226.039063l170.230469 99.796876-170.0625 126.976562c-.023438-.253906-.167969-.480469-.167969-.734375zm180.0625-113.601563 9.183594-6.015624.128906-.085938 21.464844-14.082031c7.992187-5.238281 18.328125-5.238281 26.320312 0l21.375 14.007812c.082032.0625.167969.117188.257813.167969l8.742187 5.738281 163.273438 121.871094h-413.625zm261.601562-127.199218-41.664062 24.359375v-56zm-137.664062-183.199219v72c0 4.417969 3.582031 8 8 8h72v136.9375l-121.105469 71-16.960937-11.121094c-13.316406-8.734375-30.550782-8.734375-43.871094 0l-16.960938 11.128907-121.101562-71.007813v-216.9375zm-256 207.558594-41.601562-24.414063 41.601562-31.59375zm0 0"/><path d="m191.96875 48.484375h96c4.417969 0 8-3.582031 8-8s-3.582031-8-8-8h-96c-4.417969 0-8 3.582031-8 8s3.582031 8 8 8zm0 0"/><path d="m111.96875 80.484375h192c4.417969 0 8-3.582031 8-8s-3.582031-8-8-8h-192c-4.417969 0-8 3.582031-8 8s3.582031 8 8 8zm0 0"/><path d="m111.96875 120.484375h256c4.417969 0 8-3.582031 8-8s-3.582031-8-8-8h-256c-4.417969 0-8 3.582031-8 8s3.582031 8 8 8zm0 0"/><path d="m111.96875 160.484375h256c4.417969 0 8-3.582031 8-8s-3.582031-8-8-8h-256c-4.417969 0-8 3.582031-8 8s3.582031 8 8 8zm0 0"/><path d="m111.96875 200.484375h256c4.417969 0 8-3.582031 8-8s-3.582031-8-8-8h-256c-4.417969 0-8 3.582031-8 8s3.582031 8 8 8zm0 0"/></g></svg>